<?xml version="1.0" encoding="utf-8"?>
<!-- Generator: Adobe Illustrator 16.0.0, SVG Export Plug-In . SVG Version: 6.00 Build 0)  -->
<!DOCTYPE svg PUBLIC "-//W3C//DTD SVG 1.1//EN" "http://www.w3.org/Graphics/SVG/1.1/DTD/svg11.dtd">
<svg version="1.1" id="Layer_5" xmlns="http://www.w3.org/2000/svg" xmlns:xlink="http://www.w3.org/1999/xlink" x="0px" y="0px"
	 width="184px" height="185px" viewBox="0 0 184 185" enable-background="new 0 0 184 185" xml:space="preserve">
<path fill="#FBF8D7" d="M165.172,83.889c-1.726-14.229-7.287-27.209-15.928-37.749c5.498-6.327,12.461-14.55,11.695-15.319
	l-7.718-7.769c-0.775-0.772-9.098,6.207-15.445,11.727c-10.717-8.389-23.788-14.116-38.081-15.522C99.108,10.895,98.16,0,97.075,0
	h-10.99c-1.094,0-2.06,11.064-2.645,19.455c-14.228,1.727-27.21,7.601-37.749,16.243c-6.327-5.5-14.55-12.31-15.319-11.54
	l-7.769,7.796c-0.773,0.773,6.206,9.138,11.726,15.485C25.94,58.155,20.438,71.247,19.032,85.542C10.671,86.127,0,87.094,0,88.18
	v10.988c0,1.094,10.841,2.062,19.231,2.646c1.726,14.228,7.487,27.21,16.13,37.75c-5.5,6.327-12.362,14.55-11.597,15.318l7.77,7.77
	c0.772,0.772,9.123-6.209,15.472-11.727c10.717,8.389,23.801,13.765,38.096,15.17C85.687,174.457,86.646,185,87.733,185H98.72
	c1.094,0,2.062-10.713,2.646-19.104c14.228-1.726,27.21-7.424,37.749-16.066c6.327,5.5,14.55,12.395,15.319,11.629l7.769-7.755
	c0.773-0.773-6.206-9.115-11.726-15.463c8.389-10.716,13.488-23.796,14.894-38.09C173.732,99.566,184,98.608,184,97.522V86.538
	C184,85.442,173.563,84.475,165.172,83.889z M92.403,145.907c-29.302,0-53.056-23.753-53.056-53.056
	c0-29.302,23.754-53.055,53.056-53.055s53.056,23.753,53.056,53.055C145.459,122.154,121.705,145.907,92.403,145.907z"/>
<path fill="#F1C40F" d="M112.223,58H72.582l-19.82,34.5l19.82,34.5h39.641l19.822-34.5L112.223,58z M104.946,114H79.86L67.317,92.5
	L79.86,71h25.086l12.543,21.5L104.946,114z"/>
</svg>
